<?xml version="1.0" standalone="no"?>
<!DOCTYPE svg PUBLIC "-//W3C//DTD SVG 20010904//EN"
 "http://www.w3.org/TR/2001/REC-SVG-20010904/DTD/svg10.dtd">
<svg version="1.0" xmlns="http://www.w3.org/2000/svg"
 width="933.000000pt" height="933.000000pt" viewBox="0 0 933.000000 933.000000"
 preserveAspectRatio="xMidYMid meet">
<metadata>
Created by potrace 1.14, written by Peter Selinger 2001-2017
</metadata>
<g transform="translate(0.000000,933.000000) scale(0.100000,-0.100000)"
fill="#000000" stroke="none">
<path d="M4240 8517 c-3 -3 -42 -8 -87 -11 -46 -4 -91 -9 -100 -10 -10 -2 -40
-7 -68 -10 -45 -6 -109 -17 -175 -32 -14 -3 -38 -8 -55 -11 -77 -13 -344 -97
-466 -146 -310 -124 -621 -308 -863 -510 -497 -415 -859 -977 -1034 -1607 -20
-72 -56 -232 -66 -295 -36 -220 -41 -288 -41 -540 0 -248 8 -352 41 -550 59
-357 207 -754 407 -1088 42 -71 77 -131 77 -133 0 -2 -15 -2 -32 0 -18 3 -67
7 -108 11 -41 3 -88 8 -105 10 -16 3 -48 7 -70 10 -22 3 -65 10 -95 15 -30 5
-69 12 -87 15 -145 24 -374 100 -513 170 -298 150 -456 378 -445 643 12 278
176 572 500 897 77 78 183 176 235 220 66 55 97 87 101 106 4 16 4 31 1 33 -7
7 -278 -192 -368 -271 -12 -10 -50 -43 -85 -73 -96 -82 -288 -274 -374 -375
-127 -149 -240 -330 -299 -479 -30 -74 -29 -71 -50 -166 -15 -65 -16 -253 -2
-313 36 -153 156 -317 318 -431 87 -61 237 -135 365 -180 96 -33 306 -88 383
-101 19 -3 58 -10 85 -15 28 -5 77 -12 110 -16 33 -4 67 -8 76 -9 19 -4 154
-16 219 -21 25 -1 146 -6 270 -9 l225 -7 140 -138 c138 -137 300 -277 380
-329 22 -14 42 -28 45 -31 3 -4 60 -41 127 -83 370 -234 754 -381 1177 -452
201 -33 292 -40 541 -39 227 1 289 5 458 30 340 51 714 172 997 322 160 85
437 271 554 372 156 133 245 220 396 390 143 161 348 475 441 677 23 49 45 96
50 105 25 47 91 226 123 333 20 66 41 134 46 150 13 44 58 262 64 315 3 25 9
71 12 103 6 53 10 61 43 82 82 54 296 215 343 258 13 12 46 40 74 62 199 160
430 410 566 612 283 420 281 824 -4 1088 -92 85 -144 122 -263 185 -96 50
-335 138 -426 155 -11 2 -28 6 -37 9 -9 3 -28 7 -42 10 -14 3 -36 7 -50 10
-68 15 -108 22 -175 30 -22 3 -49 8 -60 10 -11 2 -54 7 -95 11 -41 4 -83 9
-92 10 -17 4 -221 15 -335 19 -35 1 -63 0 -63 -3 1 -17 20 -34 41 -36 13 -1
56 -6 94 -9 487 -48 871 -192 1077 -402 85 -87 126 -155 161 -264 30 -98 28
-256 -7 -375 -73 -248 -237 -489 -521 -763 -147 -142 -204 -191 -206 -175 -2
20 -6 64 -13 144 -50 629 -335 1296 -766 1794 -80 93 -313 316 -410 394 -399
318 -849 531 -1345 636 -108 23 -136 27 -245 40 -30 4 -66 9 -80 12 -32 6
-534 15 -540 10z"/>
</g>
</svg>
