<?xml version="1.0" standalone="no"?>
<!DOCTYPE svg PUBLIC "-//W3C//DTD SVG 20010904//EN"
 "http://www.w3.org/TR/2001/REC-SVG-20010904/DTD/svg10.dtd">
<svg version="1.0" xmlns="http://www.w3.org/2000/svg"
 width="980.000000pt" height="980.000000pt" viewBox="0 0 980.000000 980.000000"
 preserveAspectRatio="xMidYMid meet">
<metadata>
Created by potrace 1.14, written by Peter Selinger 2001-2017
</metadata>
<g transform="translate(0.000000,980.000000) scale(0.100000,-0.100000)"
fill="#000000" stroke="none">
<path d="M3175 8448 c-40 -14 -84 -56 -101 -95 -11 -26 -14 -125 -14 -502 l0
-470 -184 -3 -184 -3 -44 -31 c-26 -19 -54 -53 -70 -84 l-28 -52 0 -2799 0
-2799 -300 0 -301 0 3 -132 3 -133 2945 0 2945 0 3 133 3 132 -301 0 -300 0 0
2798 0 2798 -27 55 c-19 37 -42 63 -73 84 l-45 30 -182 3 -183 3 0 470 c0 510
0 508 -56 561 -16 14 -47 31 -69 37 -55 15 -3397 14 -3440 -1z m3303 -660 l-3
-403 -1575 0 -1575 0 -3 403 -2 402 1580 0 1580 0 -2 -402z m512 -3423 l0
-2755 -2090 0 -2090 0 0 2755 0 2755 2090 0 2090 0 0 -2755z"/>
<path d="M4327 8026 c-129 -35 -197 -169 -166 -327 23 -116 102 -183 230 -195
121 -12 222 37 272 130 32 59 32 213 0 272 -59 110 -193 158 -336 120z m167
-146 c30 -36 41 -85 32 -146 -8 -62 -22 -83 -63 -100 -96 -41 -166 49 -142
181 12 66 44 95 104 95 36 0 48 -5 69 -30z"/>
<path d="M3570 7770 l0 -260 80 0 80 0 0 105 0 105 90 0 90 0 0 -105 0 -105
80 0 80 0 0 260 0 260 -80 0 -80 0 0 -90 0 -90 -90 0 -90 0 0 90 0 90 -80 0
-80 0 0 -260z"/>
<path d="M4740 7965 l0 -65 80 0 80 0 0 -195 0 -195 80 0 80 0 0 195 0 195 85
0 86 0 -3 63 -3 62 -242 3 -243 2 0 -65z"/>
<path d="M5300 7770 l0 -260 215 0 215 0 0 60 0 60 -135 0 -135 0 0 50 0 49
123 3 122 3 0 50 0 50 -122 3 -123 3 0 39 0 40 134 0 134 0 -1 53 -2 52 -212
3 -213 2 0 -260z"/>
<path d="M5820 7770 l0 -260 205 0 205 0 0 65 0 65 -125 0 -125 0 0 195 0 195
-80 0 -80 0 0 -260z"/>
<path d="M3190 5930 l0 -460 455 0 455 0 0 460 0 460 -455 0 -455 0 0 -460z
m648 -2 l-3 -193 -179 -2 c-98 -1 -185 1 -192 4 -11 4 -14 43 -14 194 l0 189
195 0 195 0 -2 -192z"/>
<path d="M4447 6383 c-4 -3 -7 -210 -7 -460 l0 -453 460 0 460 0 -2 458 -3
457 -451 3 c-248 1 -454 -1 -457 -5z m643 -452 c0 -164 -2 -190 -16 -195 -9
-3 -94 -6 -190 -5 l-174 0 0 195 0 194 190 0 190 0 0 -189z"/>
<path d="M5700 5930 l0 -460 455 0 455 0 0 460 0 460 -455 0 -455 0 0 -460z
m648 -2 l-3 -193 -190 0 -190 0 -3 193 -2 192 195 0 195 0 -2 -192z"/>
<path d="M3192 4723 l3 -458 430 -3 c237 -1 440 0 453 3 l22 5 0 455 0 455
-455 0 -455 0 2 -457z m646 0 l2 -193 -195 0 -195 0 0 188 c0 104 3 192 7 196
4 3 90 5 192 4 l186 -3 3 -192z"/>
<path d="M4440 4726 l0 -455 43 -6 c23 -3 229 -5 457 -3 l415 3 3 458 2 457
-460 0 -460 0 0 -454z m650 -2 l0 -194 -190 0 -190 0 0 196 0 195 190 -2 190
-2 0 -193z"/>
<path d="M5702 4723 l3 -458 453 -2 452 -2 0 460 0 459 -455 0 -455 0 2 -457z
m646 0 l2 -193 -195 0 -195 0 0 188 c0 104 3 192 7 196 4 3 90 5 192 4 l186
-3 3 -192z"/>
<path d="M4888 3972 l-448 -2 0 -455 0 -455 460 0 460 0 0 454 c0 355 -3 455
-12 457 -7 2 -214 3 -460 1z m202 -457 l0 -195 -190 0 -190 0 0 195 0 195 190
0 190 0 0 -195z"/>
<path d="M5717 3972 c-16 -3 -17 -41 -17 -458 l0 -454 455 0 455 0 0 455 0
455 -438 2 c-241 2 -446 2 -455 0z m631 -454 l-3 -193 -190 0 -190 0 -3 193
-2 192 195 0 195 0 -2 -192z"/>
<path d="M3190 3515 l0 -455 455 0 455 0 0 455 0 455 -455 0 -455 0 0 -455z
m648 3 l-3 -193 -192 -3 -193 -2 0 195 0 195 195 0 195 0 -2 -192z"/>
<path d="M4004 2611 c-2 -2 -4 -166 -4 -363 l0 -358 900 0 900 0 0 360 0 360
-857 1 c-472 0 -875 2 -896 3 -21 1 -40 0 -43 -3z m1526 -361 l0 -100 -630 0
-630 0 0 100 0 100 630 0 630 0 0 -100z"/>
</g>
</svg>
